<?xml version="1.0" encoding="utf-8"?>
<!-- Generator: Adobe Illustrator 24.0.3, SVG Export Plug-In . SVG Version: 6.00 Build 0)  -->
<svg version="1.1" id="Layer_1" xmlns="http://www.w3.org/2000/svg" xmlns:xlink="http://www.w3.org/1999/xlink" x="0px" y="0px"
	 viewBox="0 0 314.5 39.7" style="enable-background:new 0 0 314.5 39.7;" xml:space="preserve">
<style type="text/css">
	.st0{fill-rule:evenodd;clip-rule:evenodd;fill:#0093D0;}
	.st1{fill:#FFFFFF;}
</style>
<g>
	<path class="st0" d="M308.9,39.7c-1,0-1.8-0.7-1.8-1.8c0-1,0.8-1.7,1.8-1.7c0.9,0,1.7,0.7,1.7,1.7C310.6,39,309.8,39.7,308.9,39.7
		L308.9,39.7z M307.5,37.9c0,0.8,0.6,1.5,1.4,1.5c0.8,0,1.4-0.6,1.4-1.5c0-0.8-0.6-1.5-1.4-1.5C308.1,36.5,307.5,37.1,307.5,37.9
		L307.5,37.9z M308.5,38.1V39h-0.3v-2h0.8c0.5,0,0.7,0.2,0.7,0.6c0,0.4-0.2,0.5-0.5,0.6l0.6,0.9h-0.3l-0.5-0.9H308.5L308.5,38.1z
		 M308.5,37.8h0.4c0.3,0,0.5,0,0.5-0.3c0-0.2-0.2-0.3-0.4-0.3h-0.4V37.8L308.5,37.8z M303.5,39.6v-11h11V11h-11V0h-17.5v11h-11v17.6
		h11v11H303.5z M0,2.3h6.3v29.1H0V2.3z M10.7,9h5.7l0.3,2.6c1.6-1.7,4-3.1,6.8-3.1c5,0,7.1,3.1,7.1,8.1v14.7h-6.1V16.4
		c0-2-0.8-3.4-2.9-3.4c-1.9,0-3.5,1-4.8,2.6v15.6h-6.1V9z M33.6,19.9c0-7.5,3.5-11.4,8.7-11.4c2.4,0,4.7,1.2,6.4,3V0h6.1v31.3h-5.4
		L49,28.7c-1.7,1.8-3.9,3.1-6.8,3.1C37.1,31.8,33.6,27.8,33.6,19.9z M48.7,25v-9.5c-1.3-1.5-2.8-2.3-4.6-2.3c-2.9,0-4.4,2.4-4.4,6.8
		c0,4.4,1.4,7.2,4.4,7.2C45.9,27.2,47.3,26.5,48.7,25z M68.9,8.5c6.4,0,9.9,4.2,9.9,10.2c0,0.9-0.1,2-0.2,2.7H63.9
		c0.3,3.8,2.1,5.6,5.5,5.6c2.2,0,4.3-0.7,6.2-1.9l2.5,3.9c-2.7,1.9-5.9,2.9-9.2,2.9c-6.6,0-11.2-4.4-11.2-11.8
		C57.8,12.9,62.7,8.5,68.9,8.5z M64.1,17.9h9c0-2.8-1.1-5-4-5C66.6,12.9,64.7,14.7,64.1,17.9z M88,39.6h-6V9h5.5l0.5,2.7
		c1.7-1.9,3.9-3.2,6.5-3.2c5.1,0,8.6,3.9,8.6,11.4c0,7.8-3.5,11.9-8.5,11.9c-2.8,0-4.9-1.2-6.6-2.9V39.6z M92.6,27.2
		c2.9,0,4.4-2.9,4.4-7.2c0-4.4-1.5-6.8-4.4-6.8c-1.8,0-3.3,0.8-4.6,2.3V25C89.4,26.5,90.8,27.2,92.6,27.2z M116.3,8.5
		c6.4,0,9.9,4.2,9.9,10.2c0,0.9-0.1,2-0.2,2.7h-14.7c0.3,3.8,2.1,5.6,5.5,5.6c2.2,0,4.3-0.7,6.2-1.9l2.5,3.9
		c-2.7,1.9-5.9,2.9-9.2,2.9c-6.6,0-11.2-4.4-11.2-11.8C105.1,12.9,110.1,8.5,116.3,8.5z M111.4,17.9h9c0-2.8-1.1-5-4-5
		C114,12.9,112,14.7,111.4,17.9z M129.3,9h5.7l0.3,2.6c1.6-1.7,4-3.1,6.8-3.1c5,0,7.1,3.1,7.1,8.1v14.7h-6.1V16.4
		c0-2-0.8-3.4-2.9-3.4c-1.9,0-3.5,1-4.8,2.6v15.6h-6.1V9z M152.2,19.9c0-7.5,3.5-11.4,8.7-11.4c2.4,0,4.7,1.2,6.4,3V0h6.1v31.3H168
		l-0.4-2.6c-1.7,1.8-3.9,3.1-6.8,3.1C155.7,31.8,152.2,27.8,152.2,19.9z M167.3,25v-9.5c-1.3-1.5-2.8-2.3-4.6-2.3
		c-2.9,0-4.4,2.4-4.4,6.8c0,4.4,1.4,7.2,4.4,7.2C164.5,27.2,165.9,26.5,167.3,25z M187.6,8.5c6.4,0,9.9,4.2,9.9,10.2
		c0,0.9-0.1,2-0.2,2.7h-14.7c0.3,3.8,2.1,5.6,5.5,5.6c2.2,0,4.3-0.7,6.2-1.9l2.5,3.9c-2.7,1.9-5.9,2.9-9.2,2.9
		c-6.6,0-11.2-4.4-11.2-11.8C176.4,12.9,181.4,8.5,187.6,8.5z M182.7,17.9h9c0-2.8-1.1-5-4-5C185.2,12.9,183.3,14.7,182.7,17.9z
		 M200.6,9h5.7l0.3,2.6c1.6-1.7,4-3.1,6.8-3.1c5,0,7.1,3.1,7.1,8.1v14.7h-6.1V16.4c0-2-0.8-3.4-2.9-3.4c-1.9,0-3.5,1-4.8,2.6v15.6
		h-6.1V9z M234.6,8.6c2.7,0,5.4,0.8,7.9,2.7l-3.1,3.9c-1.3-1-2.8-1.7-4.6-1.7c-2.9,0-5.4,2.3-5.4,6.6c0,4.4,2.4,6.9,5.4,6.9
		c2,0,3.3-0.7,4.7-1.8l3.3,3.5c-2.4,2.2-5,3.2-8.2,3.2c-6.5,0-11.3-4.4-11.3-11.8C223.3,12.9,228.1,8.6,234.6,8.6z M254.1,8.5
		c6.4,0,9.9,4.2,9.9,10.2c0,0.9-0.1,2-0.2,2.7h-14.7c0.3,3.8,2.1,5.6,5.5,5.6c2.2,0,4.3-0.7,6.2-1.9l2.5,3.9
		c-2.7,1.9-5.9,2.9-9.2,2.9c-6.6,0-11.2-4.4-11.2-11.8C242.9,12.9,247.9,8.5,254.1,8.5z M249.2,17.9h9c0-2.8-1.1-5-4-5
		C251.8,12.9,249.8,14.7,249.2,17.9z"/>
	<path class="st1" d="M284.6,16l7.3,0.7c1.4,0.2,1.5,1.5,1.2,2.3l-5,9.4l0,0c-2.5-2-4.2-5.1-4.2-8.6C283.9,18.5,284.1,17.2,284.6,16
		L284.6,16z M285.4,19.8c0,2.3,0.9,4.5,2.3,6.1l3.9-7.4c0.1-0.2,0.1-0.4-0.3-0.4l-5.5-0.5C285.5,18.3,285.4,19.1,285.4,19.8z
		 M304.9,16c0.5,1.2,0.7,2.5,0.7,3.8c0,3.5-1.6,6.6-4.2,8.6l0,0l-5-9.4c-0.4-0.8-0.2-2.1,1.2-2.3L304.9,16L304.9,16z M303.8,17.6
		l-5.5,0.5c-0.4,0-0.4,0.2-0.3,0.4l3.9,7.4c1.4-1.6,2.3-3.8,2.3-6.1C304.1,19.1,304,18.3,303.8,17.6z M294.7,30.7
		c-2.2,0-4.3-0.7-6-1.8v0l5.3-7.9c0.4-0.6,1-0.5,1.4,0l5.3,7.9l0,0C299,30,296.9,30.7,294.7,30.7 M294.9,22.8
		c-0.1-0.1-0.2-0.1-0.3,0l-3.7,5.6c1.2,0.5,2.5,0.8,3.8,0.8c1.4,0,2.6-0.3,3.8-0.8L294.9,22.8c-0.1-0.1-0.2-0.1-0.3,0 M301.8,13.8
		l-4.9,0c-0.1,0-0.1-0.1,0-0.2c0.5-0.6,1-1.8,0.4-2.7C299.1,11.4,300.7,12.4,301.8,13.8z M294.7,9c-4.4,0-8.1,2.6-9.8,6.3h7.7
		c1.1,0,1.6-0.7,1.6-1.2c0-0.6-0.1-0.8-0.6-1.5c-0.6-0.7-0.2-2.2,1.1-2.2c1.3,0,1.7,1.5,1.1,2.2c-0.5,0.7-0.6,0.9-0.6,1.5
		c0,0.5,0.5,1.2,1.6,1.2h7.7C302.8,11.5,299.1,9,294.7,9z M292.1,10.8c-0.6,0.9-0.1,2.1,0.4,2.7c0.1,0.1,0,0.2,0,0.2l-4.9,0
		C288.8,12.4,290.4,11.4,292.1,10.8z"/>
</g>
</svg>
